2.2Hz3min_grf.mot
version=1
nRows=12
nColumns 19
inDegrees=yes
endheader
time	1_ground_force_vx	1_ground_force_vy	1_ground_force_vz	1_ground_force_px	1_ground_force_py	1_ground_force_pz	1_ground_torque_x	1_ground_torque_y	1_ground_torque_z	2_ground_force_vx	2_ground_force_vy	2_ground_force_vz	2_ground_force_px	2_ground_force_py	2_ground_force_pz	2_ground_torque_x	2_ground_torque_y	2_ground_torque_z
            1.253500	            0.320706	           -0.179810	           -0.093281	           -0.233013	            0.005581	           -0.255695	            0.172919	           -0.018148	           -0.024414	           -0.062123	            3.877657	           -2.989580	           -0.232311	            0.006130	           -0.833667	           -0.639594	            0.289383	            0.378321
            1.254000	            0.458594	           -0.901240	           -0.005003	           -0.233013	            0.005581	           -0.255695	            0.000384	            0.056074	           -0.074172	            0.076309	            4.431614	           -3.269238	           -0.232311	            0.006130	           -0.833667	           -0.658132	            0.213895	            0.321509
            1.254500	            0.045079	           -0.178881	           -0.321878	           -0.233013	            0.005581	           -0.255695	            0.069882	            0.046643	           -0.092003	           -0.151856	            2.772596	           -3.040411	           -0.232311	            0.006130	           -0.833667	           -0.620627	            0.214569	            0.170691
            1.255000	            0.181907	            0.543192	           -0.548407	           -0.233013	            0.005581	           -0.255695	            0.135629	           -0.008911	           -0.048970	           -0.012553	            3.140731	           -2.851444	           -0.232311	            0.006130	           -0.833667	           -0.620680	            0.242523	            0.283894
            1.255500	            0.273042	           -0.176674	           -0.826862	           -0.233013	            0.005581	           -0.255695	            0.147929	           -0.018281	           -0.007509	           -0.201302	            3.508518	           -2.896979	           -0.232311	            0.006130	           -0.833667	           -0.545476	            0.205589	            0.114075
            1.256000	            0.273593	            0.543209	           -0.548635	           -0.233013	            0.005581	           -0.255695	            0.097966	           -0.073338	           -0.101637	           -0.192518	            1.113419	           -2.577024	           -0.232311	            0.006130	           -0.833667	           -0.507924	            0.224227	            0.227228
            1.256500	            0.320122	           -0.719428	           -0.370736	           -0.233013	            0.005581	           -0.255695	           -0.003006	            0.000779	           -0.136665	           -0.475029	            1.481370	           -2.763302	           -0.232311	            0.006130	           -0.833667	           -0.526641	            0.205253	            0.227168
            1.257000	            0.411367	           -0.178023	           -0.506212	           -0.233013	            0.005581	           -0.255695	            0.096886	            0.055409	            0.073990	           -0.007777	            1.850689	           -2.574475	           -0.232311	            0.006130	           -0.833667	           -0.413699	            0.139559	            0.208034
            1.257500	            0.275384	           -0.541137	            0.088710	           -0.233013	            0.005581	           -0.255695	            0.109085	            0.074098	            0.011794	            0.041772	            1.113930	           -2.483267	           -0.232311	            0.006130	           -0.833667	           -0.526648	            0.196137	            0.132883
            1.258000	            0.365572	            0.182303	           -0.458696	           -0.233013	            0.005581	           -0.255695	            0.056731	            0.046864	           -0.097097	            0.131608	            2.218154	           -2.197796	           -0.232311	            0.006130	           -0.833667	           -0.469978	            0.120383	            0.226841
            1.258500	            0.411547	           -0.538751	           -0.461902	           -0.233013	            0.005581	           -0.255695	            0.094889	            0.018920	           -0.038937	            0.273610	            1.849360	           -1.917601	           -0.232311	            0.006130	           -0.833667	           -0.470165	            0.167781	            0.189309
            1.259000	            0.457291	            0.002055	           -0.459697	           -0.233013	            0.005581	           -0.255695	            0.132102	           -0.045755	           -0.037371	            0.417627	            0.927955	           -1.592450	           -0.232311	            0.006130	           -0.833667	           -0.395073	            0.168455	            0.076176
